<mxfile host="Electron" modified="2024-11-08T09:29:16.705Z" agent="Mozilla/5.0 (Windows NT 10.0; Win64; x64) AppleWebKit/537.36 (KHTML, like Gecko) draw.io/21.8.2 Chrome/114.0.5735.289 Electron/25.8.1 Safari/537.36" etag="_bwGR-zHXWYFqpHkNRwZ" version="21.8.2" type="device">
  <diagram name="Page-1" id="toGraduW6WTGHMgWG4XV">
    <mxGraphModel dx="1418" dy="828" grid="1" gridSize="10" guides="1" tooltips="1" connect="1" arrows="1" fold="1" page="1" pageScale="1" pageWidth="1169" pageHeight="827" math="0" shadow="0">
      <root>
        <mxCell id="0" />
        <mxCell id="1" parent="0" />
        <mxCell id="6YZlwBT42vMe1gG0pOw6-6" value="Presentation Layer" style="rounded=1;whiteSpace=wrap;html=1;fontSize=17;fillColor=#fff2cc;strokeColor=#d6b656;verticalAlign=top;spacingTop=8;fontStyle=1" vertex="1" parent="1">
          <mxGeometry x="125" y="170" width="750" height="460" as="geometry" />
        </mxCell>
        <mxCell id="6YZlwBT42vMe1gG0pOw6-4" value="MvvmPresentation.Data" style="ellipse;whiteSpace=wrap;html=1;fillColor=#f5f5f5;fontColor=#333333;strokeColor=#666666;fontSize=15;fontStyle=1;labelPosition=center;verticalLabelPosition=middle;align=center;verticalAlign=top;spacingTop=40;" vertex="1" parent="1">
          <mxGeometry x="245" y="350" width="510" height="260" as="geometry" />
        </mxCell>
        <mxCell id="6YZlwBT42vMe1gG0pOw6-3" value="MvvmPresentation.Core" style="ellipse;whiteSpace=wrap;html=1;fontStyle=1;fontSize=15;" vertex="1" parent="1">
          <mxGeometry x="360" y="460" width="280" height="140" as="geometry" />
        </mxCell>
        <mxCell id="6YZlwBT42vMe1gG0pOw6-7" value="MvvmPresentation.App&lt;br&gt;(WinForm)" style="ellipse;whiteSpace=wrap;html=1;fontStyle=1;fillColor=#1ba1e2;strokeColor=#006EAF;fontColor=#ffffff;" vertex="1" parent="1">
          <mxGeometry x="140" y="224" width="220" height="80" as="geometry" />
        </mxCell>
        <mxCell id="6YZlwBT42vMe1gG0pOw6-8" value="MvvmPresentation.App.Wpf&lt;br&gt;(WPF)" style="ellipse;whiteSpace=wrap;html=1;fontStyle=1;fillColor=#fad9d5;strokeColor=#ae4132;" vertex="1" parent="1">
          <mxGeometry x="390" y="224" width="220" height="80" as="geometry" />
        </mxCell>
        <mxCell id="6YZlwBT42vMe1gG0pOw6-9" value="MvvmPresentation.App.Console&lt;br&gt;(CONSOLE)" style="ellipse;whiteSpace=wrap;html=1;fontStyle=1;fillColor=#000000;strokeColor=#82b366;fontColor=#FFFFFF;" vertex="1" parent="1">
          <mxGeometry x="640" y="224" width="220" height="80" as="geometry" />
        </mxCell>
      </root>
    </mxGraphModel>
  </diagram>
</mxfile>
